<?xml version="1.0" encoding="utf-8"?>
<!-- Generator: Adobe Illustrator 25.2.3, SVG Export Plug-In . SVG Version: 6.00 Build 0)  -->
<svg version="1.1" id="Layer_1" xmlns="http://www.w3.org/2000/svg" xmlns:xlink="http://www.w3.org/1999/xlink" x="0px" y="0px"
	 viewBox="0 0 1636 843" style="enable-background:new 0 0 1636 843;" xml:space="preserve">
<style type="text/css">
	.st0{fill:none;stroke:#014470;stroke-width:6;stroke-linecap:round;stroke-linejoin:round;}
	.st1{fill:#E34F4F;}
	.st2{fill:none;stroke:#014470;stroke-width:8;stroke-linecap:round;stroke-linejoin:round;}
	.st3{fill:#014470;}
	.st4{fill:#ffdbac;stroke:#014470;stroke-width:6;stroke-linecap:round;stroke-linejoin:round;}
	.st5{fill:#231F20;}
	.st6{fill:#1F9DFF;}
	.st7{fill:url(#SVGID_1_);}
	.st8{fill:#39C450;}
</style>
<g id="developer">
	<path id="chair" class="st0" d="M314.2,731.6L289.8,537c-9.6-76.6,45-138.7,122.1-138.7h128.8"/>
	<g id="body">
		<path id="hoodie" class="st0" d="M621.5,394.8l16-22.5l-4.2-30.2c-1.1-2.1-2.3-4.4-3.5-6.7c-87.4,13-98,49.6-78.4,88.8
			c-144.9,28.3-208,250.7-170.3,356.3c10.7,30,19.4,60,51.3,60.3"/>
		<g id="tshirt">
			<path class="st1" d="M667.1,475.7c0-0.2,0-0.4,0-0.6c4.7,0.5,9.3,0.5,13.8-3.4c11-9.5,14.9-12.4,14.9-12.4s1,1.2,2.8,3.2
				c2.2-4,4.4-8.1,6.7-12.4c-47.5-36.8-83.8-55.4-83.8-55.4l-2.7-1.9l-17.4,21.3C601.4,414.2,629.8,433.7,667.1,475.7z"/>
			<path class="st1" d="M896.6,821c0,0-76-204.4-66.3-267.7c5.3-34.5-3-73.7-14.4-104l-21.8,1.4L768,512.3c1.7,0.4,3.4,0.8,5.1,1
				c0,0-1,6.5-3.5,21.3c-1.7,9.9,1.2,11,3.4,17.9c2.9,4.6,5.1,9.8,2.7,17.9c-0.8,2.6-2.7,27.4-7,61c8,17,15.6,34.9,22.8,54
				c46.1,122.9,41.3,136.3,41.3,136.3L896.6,821z"/>
		</g>
		<path id="hoodie-2" class="st0" d="M1154,839.2c-5.5-36-44.5-229.2-267.7-398.7c-5-30.3-17.7-77.9-82.7-100.2"/>
		<path id="string" class="st2" d="M848.4,542.5c0,0-2.4,65.3,11.9,112.2"/>
		<path id="stripe" class="st3" d="M883.4,439.8c0.7,4.3,1.3,8.2,1.8,11.6c6.1,39.8-7,66.3-15.7,84.6c23.3-16.5,39.1-47.9,47-71.8
			C906.9,456.5,893.8,447.5,883.4,439.8z"/>
		<path id="stripe_II" class="st3" d="M553.7,422.4c-16.3,3.3-43.1,11.5-62.5,24.8c13.5,7.4,80.4,47.4,135,71.4
			c0.4-0.2,3.4-5.2,4.9-7.2C601,487.5,569.2,453.3,553.7,422.4z"/>
	</g>
	<path id="ear" class="st4" d="M597.7,263.1c0,0-37.1,10.1-22.1,41.8c10.4,22,30.3,14.2,42.1,7.5"/>
	<path id="face" class="st4" d="M607.7,269.2l11.7-3.9c7.7,4.6,33.1,36.2,41.3,51.9c0,0,37.3-24.2,95.5-39.7c0,0,31.7-7.2,45.5-6.7
		c-4-32-12.2-72.9-26.6-109.4c-21.4-54.3-87.7-33.2-97.3-30c-103.5,35.1-70.3,137.5-70.3,137.5L607.7,269.2z"/>
	<path id="beard" class="st4" d="M724,403.3c-12.4,0-24.3-2.1-33.6-5.8c-30.2-11.9-36.6-19.6-47.5-37.8s-44.8-87.4-44.8-87.4
		l21.2-7.1c7.7,4.6,33.1,36.2,41.3,51.9c0,0,37.3-24.2,95.5-39.7c0,0,32-7.3,45.7-6.7c0,0,6.5,32.5,2.6,64.4"/>
	<path id="hair" class="st3" d="M600.7,281.4c0,0-19.1-22.2-32.9-48.7c-13-24.9-7.6-55.8,13.9-73.8c18-15.1,35.2-11.1,35.2-11.1
		s-31.1-31.6-6.6-72.6c8.7-14.5,22.9-24.7,39.4-28.4c40.2-8.8,61,21.8,61,21.8S733.8-20.6,833,3.9c10,2.5,23.2,13.1,30.2,20.7
		c42.3,46.3-37.2,133.3-85.6,150.7c-53.1,19.1-87.3,18.1-108.2,9.1C684.4,189,685,273.7,600.7,281.4z"/>
	<polyline id="nose" class="st2" points="754.1,253.8 772.8,303.7 753.5,303.6 	"/>
	<circle id="mouth" class="st3" cx="743.8" cy="337.4" r="9.5"/>
	
		<ellipse id="eye_II" transform="matrix(0.9701 -0.2426 0.2426 0.9701 -37.4592 195.2909)" class="st3" cx="774.2" cy="249.7" rx="5.4" ry="8.4"/>
	
		<ellipse id="eye" transform="matrix(0.9701 -0.2426 0.2426 0.9701 -41.8431 183.2946)" class="st3" cx="723.3" cy="261.5" rx="5.4" ry="8.4"/>
	<path id="brow_II" class="st2" d="M690.2,229.8c3.7-8.3,11.6-13.9,20.6-14.7"/>
	<path id="brow" class="st2" d="M758.8,202.2c0,0,13.6-7.4,20.3,3.6"/>
	<path id="laptop" class="st3" d="M1350.5,562.8H961.7c-5.1,0-9.5,3.5-10.7,8.5l-54.1,228.8H756c0,0-7.8,40.3,37.7,40.3h496.4
		c5.1,0,9.5-3.5,10.7-8.5l60.4-255.6c1.4-5.9-2.3-11.8-8.2-13.2C1352.2,562.9,1351.4,562.8,1350.5,562.8z"/>
	<g id="code_lines">
		<path class="st1" d="M1193.2,206.1h3.1c2.8,0,5,2.2,5,5v7.9c0,2.8-2.2,5-5,5h-3.1c-2.8,0-5-2.2-5-5v-7.9
			C1188.2,208.4,1190.4,206.1,1193.2,206.1z"/>
		<path class="st3" d="M1098.4,206.1h79.8c2.8,0,5,2.2,5,5v7.9c0,2.8-2.2,5-5,5h-79.8c-2.8,0-5-2.2-5-5v-7.9
			C1093.4,208.4,1095.6,206.1,1098.4,206.1z"/>
		<path class="st3" d="M1098.4,289.2h87.9c2.8,0,5,2.2,5,5v7.9c0,2.8-2.2,5-5,5h-87.9c-2.8,0-5-2.2-5-5v-7.9
			C1093.4,291.5,1095.6,289.2,1098.4,289.2z"/>
		<path class="st1" d="M1123.1,261.6H1265c2.8,0,5,2.2,5,5v7.9c0,2.8-2.2,5-5,5h-141.9c-2.8,0-5-2.2-5-5v-7.9
			C1118.1,263.8,1120.4,261.6,1123.1,261.6z"/>
		<path class="st1" d="M1283.5,261.6h72c2.8,0,5,2.2,5,5v7.9c0,2.8-2.2,5-5,5h-72c-2.8,0-5-2.2-5-5v-7.9
			C1278.5,263.8,1280.8,261.6,1283.5,261.6z"/>
		<path class="st3" d="M1380.3,233.9h3.1c2.8,0,5,2.2,5,5v7.9c0,2.8-2.2,5-5,5h-3.1c-2.8,0-5-2.2-5-5v-7.9
			C1375.3,236.1,1377.5,233.9,1380.3,233.9z"/>
		<path class="st3" d="M1098.4,233.9h147.1c2.8,0,5,2.2,5,5v7.9c0,2.8-2.2,5-5,5h-147.1c-2.8,0-5-2.2-5-5v-7.9
			C1093.4,236.1,1095.6,233.9,1098.4,233.9z"/>
		<path class="st3" d="M1212,206.1h79.8c2.8,0,5,2.2,5,5v7.9c0,2.8-2.2,5-5,5H1212c-2.8,0-5-2.2-5-5v-7.9
			C1207,208.4,1209.3,206.1,1212,206.1z"/>
		<path class="st1" d="M1262.5,233.8h100.8c2.8,0,5,2.2,5,5v8c0,2.8-2.2,5-5,5h-100.8c-2.8,0-5-2.2-5-5v-8
			C1257.5,236,1259.7,233.8,1262.5,233.8z"/>
	</g>
	<g id="code_lines-2">
		<path class="st3" d="M1098.4,385.5h79.8c2.8,0,5,2.2,5,5v7.9c0,2.8-2.2,5-5,5h-79.8c-2.8,0-5-2.2-5-5v-7.9
			C1093.4,387.7,1095.6,385.5,1098.4,385.5z"/>
		<path class="st3" d="M1098.4,468.6h87.9c2.8,0,5,2.2,5,5v7.9c0,2.8-2.2,5-5,5h-87.9c-2.8,0-5-2.2-5-5v-7.9
			C1093.4,470.8,1095.6,468.6,1098.4,468.6z"/>
		<path class="st1" d="M1123.1,440.9H1265c2.8,0,5,2.2,5,5v7.9c0,2.8-2.2,5-5,5h-141.9c-2.8,0-5-2.2-5-5v-7.9
			C1118.1,443.2,1120.4,440.9,1123.1,440.9z"/>
		<path class="st1" d="M1283.5,440.9h72c2.8,0,5,2.2,5,5v7.9c0,2.8-2.2,5-5,5h-72c-2.8,0-5-2.2-5-5v-7.9
			C1278.5,443.2,1280.8,440.9,1283.5,440.9z"/>
		<path class="st3" d="M1380.3,413.3h3.1c2.8,0,5,2.2,5,5v7.9c0,2.8-2.2,5-5,5h-3.1c-2.8,0-5-2.2-5-5v-7.9
			C1375.3,415.5,1377.5,413.3,1380.3,413.3z"/>
		<path class="st3" d="M1403.1,385.5h3.1c2.8,0,5,2.2,5,5v7.9c0,2.8-2.2,5-5,5h-3.1c-2.8,0-5-2.2-5-5v-7.9
			C1398.1,387.7,1400.4,385.5,1403.1,385.5z"/>
		<path class="st3" d="M1098.4,413.2h147.1c2.8,0,5,2.2,5,5v7.9c0,2.8-2.2,5-5,5h-147.1c-2.8,0-5-2.2-5-5v-7.9
			C1093.4,415.5,1095.6,413.2,1098.4,413.2z"/>
		<path class="st1" d="M1193.2,385.5h98.6c2.8,0,5,2.2,5,5v7.9c0,2.8-2.2,5-5,5h-98.6c-2.8,0-5-2.2-5-5v-7.9
			C1188.2,387.7,1190.4,385.5,1193.2,385.5z"/>
		<path class="st1" d="M1308.7,385.5h79.8c2.8,0,5,2.2,5,5v7.9c0,2.8-2.2,5-5,5h-79.8c-2.8,0-5-2.2-5-5v-7.9
			C1303.7,387.7,1306,385.5,1308.7,385.5z"/>
		<path class="st1" d="M1193.2,358.7h3.1c2.8,0,5,2.2,5,5v7.9c0,2.8-2.2,5-5,5h-3.1c-2.8,0-5-2.2-5-5v-7.9
			C1188.2,360.9,1190.4,358.7,1193.2,358.7z"/>
		<path class="st3" d="M1098.4,358.7h79.8c2.8,0,5,2.2,5,5v7.9c0,2.8-2.2,5-5,5h-79.8c-2.8,0-5-2.2-5-5v-7.9
			C1093.4,360.9,1095.6,358.7,1098.4,358.7z"/>
		<path class="st3" d="M1212,358.7h79.8c2.8,0,5,2.2,5,5v7.9c0,2.8-2.2,5-5,5H1212c-2.8,0-5-2.2-5-5v-7.9
			C1207,360.9,1209.3,358.7,1212,358.7z"/>
		<path class="st1" d="M1262.5,413.2h100.8c2.8,0,5,2.2,5,5v8c0,2.8-2.2,5-5,5h-100.8c-2.8,0-5-2.2-5-5v-8
			C1257.5,415.4,1259.7,413.2,1262.5,413.2z"/>
	</g>
	<g id="mug">
		<path id="handle" class="st0" d="M1480.8,735.3c2.2-0.8,4.5-1.2,6.8-1.4c14.4-1,26.8,9.8,27.9,24.1c1,14.4-9.8,26.8-24.1,27.9
			c-2,0.1-3.9,0.1-5.9-0.2"/>
		<line id="spoon" class="st0" x1="1418" y1="738.7" x2="1380.7" y2="693.2"/>
		<path id="mug-2" class="st3" d="M1375.3,724.6v85.8c0,16.6,13.4,30,30,30h50.6c16.6,0,30-13.4,30-30v-85.8H1375.3z M1420,787.4
			c0.6,0.4,1,1,1,1.8c0,1.1-0.9,2-2,2c-0.3,0-0.7-0.1-1-0.2l-20-12c-1-0.5-1.4-1.7-1-2.7c0.2-0.4,0.5-0.8,1-1l20-12
			c0.3-0.2,0.7-0.3,1-0.2c1.1,0,2,0.9,2,2c0,0.7-0.4,1.4-1,1.8l-17.2,10.3L1420,787.4z M1445,757.9l-16.1,40.2
			c-0.1,0.2-0.2,0.4-0.4,0.5c-0.4,0.4-0.9,0.6-1.4,0.6c-1.1,0-2-0.9-2-2c0-0.3,0.1-0.6,0.2-0.8l16.1-40.2c0.1-0.2,0.3-0.4,0.4-0.6
			c0.4-0.4,0.9-0.6,1.4-0.6c1.1,0,2,0.9,2,2C1445.2,757.3,1445.1,757.6,1445,757.9L1445,757.9z M1472.3,778.9l-20,12
			c-0.3,0.2-0.7,0.3-1,0.2c-1.1,0-2-0.9-2-2c0-0.7,0.4-1.4,1-1.8l17.2-10.3l-17.2-10.3c-0.6-0.4-1-1-1-1.8c0-0.5,0.2-1,0.6-1.4
			s0.9-0.6,1.4-0.6c0.3,0,0.7,0.1,1,0.2l20,12c1,0.5,1.4,1.7,1,2.7C1473.1,778.4,1472.7,778.7,1472.3,778.9L1472.3,778.9z"/>
	</g>
	<g id="tea">
		<path id="handle-2" class="st0" d="M241.7,785.9c-14.4,1.1-26.9-9.7-27.9-24.1c-1.1-14.4,9.7-26.9,24.1-27.9
			c1.6-0.1,3.2-0.1,4.7,0.1"/>
		<path id="ug" class="st3" d="M238.3,724.6v85.8c0,16.6,13.4,30,30,30h50.6c16.6,0,30-13.4,30-30v-85.8H238.3z M283.1,787.4
			c0.6,0.4,1,1,1,1.8c0,1.1-0.9,2-2,2c-0.3,0-0.7-0.1-1-0.2l-20-12c-1-0.5-1.4-1.7-1-2.7c0.2-0.4,0.5-0.8,1-1l20-12
			c0.3-0.2,0.7-0.3,1-0.2c1.1,0,2,0.9,2,2c0,0.7-0.4,1.4-1,1.8l-17.2,10.3L283.1,787.4z M325.2,778.9l-20,12c-0.3,0.2-0.7,0.3-1,0.2
			c-0.5,0-1.1-0.2-1.4-0.6c-0.4-0.4-0.6-0.9-0.6-1.4c0-0.7,0.4-1.4,1-1.8l17.2-10.3l-17.2-10.3c-0.6-0.4-1-1-1-1.8c0-1.1,0.9-2,2-2
			c0.3,0,0.7,0.1,1,0.2l20,12c1,0.5,1.4,1.7,1,2.7C326,778.4,325.7,778.7,325.2,778.9L325.2,778.9z"/>
	</g>
	<g id="soda">
		<line id="line" class="st0" x1="423.8" y1="690" x2="410.2" y2="665.2"/>
		<line id="line-2" class="st0" x1="393.5" y1="692.7" x2="469.3" y2="692.7"/>
		<g id="can">
			<path class="st3" d="M458.8,773.5c-2.3-2.3-6-2.3-8.3,0s-2.3,6,0,8.3s6,2.3,8.3,0c1.1-1.1,1.7-2.6,1.7-4.2
				C460.5,776.1,459.9,774.6,458.8,773.5z"/>
			<path class="st3" d="M454.6,764.7c3.2,0,5.9-2.6,5.9-5.8s-2.6-5.9-5.8-5.9c-3.2,0-5.9,2.6-5.9,5.8c0,1.6,0.6,3.1,1.7,4.2
				C451.6,764.1,453.1,764.7,454.6,764.7z"/>
			<path class="st3" d="M458.8,800.6c2.3-2.3,2.3-6,0-8.3s-6-2.3-8.3,0s-2.3,6,0,8.3c1.1,1.1,2.6,1.7,4.2,1.7
				C456.2,802.3,457.7,801.7,458.8,800.6z"/>
			<path class="st3" d="M476.7,710.8l-13.3-17.3h-64.1L386,710.8c-1.3,1.6-2,3.6-2,5.6v105.3c0.1,3.4,2,6.6,5,8.2
				c4.1,2.6,9.4,6.5,9.7,10.3H464c0.4-3.8,5.6-7.8,9.7-10.3c3-1.7,4.8-4.8,4.9-8.3V716.4C478.7,714.4,478,712.4,476.7,710.8z
				 M448.9,731l7-11.7c0.2-0.4,0.6-0.6,1-0.7c0.4,0,0.9,0.3,1.1,0.7l7,11.7c0.1,0.2,0.2,0.4,0.1,0.6c0,0.3-0.1,0.6-0.3,0.8
				c-0.2,0.2-0.5,0.4-0.8,0.3c-0.4,0-0.8-0.2-1-0.6l-6-10l-6,10c-0.2,0.4-0.6,0.6-1,0.6c-0.3,0-0.6-0.1-0.8-0.3
				c-0.2-0.2-0.4-0.5-0.4-0.8C448.7,731.4,448.8,731.2,448.9,731L448.9,731z M449.3,735.4c0.2-0.1,0.4-0.2,0.7-0.2
				c0.3,0,0.6,0.1,0.8,0.3c0.2,0.2,0.3,0.5,0.3,0.8s-0.1,0.6-0.3,0.8l-0.4,0.4c-1.1,1.1-1.7,2.6-1.7,4.2c-0.1,1.5,0.5,2.9,1.5,3.9
				c0.3,0.2,0.6,0.4,1,0.3c0.4,0,0.8-0.3,0.9-0.7l2.4-7.2c0.2-0.7,0.6-1.3,1-1.9c0.6-0.7,1.5-1,2.5-1s1.9,0.4,2.5,1.1
				c1.5,1.5,2.2,3.5,2.1,5.5c0,2.4-1.1,4.8-3,6.3c-0.2,0.2-0.4,0.2-0.7,0.2c-0.6,0-1.2-0.5-1.2-1.1l0,0c0-0.3,0.1-0.6,0.3-0.8
				l0.4-0.4c1.1-1.1,1.7-2.6,1.7-4.2c0.1-1.5-0.5-2.9-1.5-3.9c-0.3-0.2-0.6-0.4-1-0.3c-0.4,0-0.8,0.3-0.9,0.7l-2.4,7.2
				c-0.2,0.7-0.5,1.3-1,1.9c-0.6,0.7-1.5,1-2.5,1s-1.9-0.4-2.5-1.1c-1.5-1.5-2.2-3.5-2.1-5.5C446.4,739.2,447.5,736.9,449.3,735.4
				L449.3,735.4z M448.8,753c3.2-3.2,8.4-3.2,11.6,0s3.2,8.4,0,11.6c-3.2,3.2-8.4,3.2-11.6,0c-1.5-1.5-2.4-3.6-2.4-5.8
				C446.4,756.7,447.2,754.6,448.8,753z M446.7,804.3c-0.5-0.5-0.4-1.2,0-1.7c0.2-0.2,0.5-0.3,0.8-0.3h1.3
				c-3.2-3.2-3.3-8.4-0.1-11.6c3.2-3.2,8.4-3.3,11.6-0.1s3.3,8.4,0.1,11.6c-1.6,1.6-3.7,2.5-5.9,2.5h-7
				C447.3,804.7,447,804.5,446.7,804.3z M465,808.7l-7,11.7c-0.2,0.4-0.6,0.6-1.1,0.7c-0.4,0-0.8-0.3-1-0.7l-7-11.7
				c-0.1-0.2-0.2-0.4-0.1-0.6c0-0.3,0.1-0.6,0.4-0.8c0.2-0.2,0.5-0.4,0.8-0.3c0.4,0,0.8,0.2,1,0.6l6,10l6-10c0.2-0.4,0.6-0.6,1-0.6
				c0.6,0,1.2,0.5,1.2,1.2C465.2,808.4,465.1,808.6,465,808.7z M469.6,785.5c-0.2,0.2-0.5,0.3-0.8,0.3h-14.1c-4.5,0-8.2-3.7-8.2-8.2
				s3.7-8.2,8.2-8.2s8.2,3.7,8.2,8.2c0,2.2-0.9,4.3-2.4,5.8l-0.1,0.1h8.4c0.3,0,0.6,0.1,0.8,0.3c0.2,0.2,0.4,0.5,0.4,0.8
				C469.9,785,469.8,785.3,469.6,785.5L469.6,785.5z"/>
		</g>
	</g>
	<path id="thumb" class="st4" d="M724.7,413.1c0.4-12.9,0.2-33.3-4.4-42.2c-7.3-14.1-0.5-29.2,14.4-13.8
		c8.5,8.8,12.7,20.4,14.7,28.8"/>
	<circle class="st0" cx="850.6" cy="366.3" r="26.1"/>
	<path id="sleeve" class="st0" d="M681.7,843.4c76.2-5.7,91.4-264.2,94-273.1c5.3-17.4-11.3-21.5-9.1-35.3s0.5-20,0.5-20
		c-35.8-5.8-70.5-50.8-70.5-50.8s-3.6,2.6-13.8,11.4s-21.7-4.7-33.4,8.7c-7.7,8.9-91.8,150.2-91.8,150.2"/>
	<path id="welt" class="st3" d="M769.7,534.6c2.5-14.9,3.5-21.3,3.5-21.3c-38.1-5.9-77.4-53.9-77.4-53.9s-3.9,2.9-14.9,12.4
		c-4.4,3.8-9,3.8-13.8,3.4c-3.4,41.7,71.5,78.8,106.9,80.6C771.7,545.7,767.8,545.9,769.7,534.6z"/>
	<path id="welt_1_" class="st3" d="M769.7,534.6c2.5-14.9,3.5-21.3,3.5-21.3c-38.1-5.9-77.4-53.9-77.4-53.9s-3.9,2.9-14.9,12.4
		c-4.4,3.8-9,3.8-13.8,3.4c-3.4,41.7,71.5,78.8,106.9,80.6C771.7,545.7,767.8,545.9,769.7,534.6z"/>
	<path id="line-3" class="st0" d="M508,610.8c0,0,45.1-38.9,71.3-14.4"/>
	<path id="hand-2" class="st4" d="M680.9,495.6l75.6,43.9l37.8-89.4c36.5,0.1,36.3-19.8,28.7-20.4s-44.3,4.5-44.3,4.5
		s1.2-2.7,31-8.3s24.2-22.3,17.8-22.7s-53.8,11.4-53.8,11.4l40.7-14.5c14.5-4.6,15-18.6,7.4-20.6c-5-1.3-31.7,6.8-52.8,14.1
		c0,0,25.4-13,37.4-20.9s3.6-18.1-3.4-17.5s-55.9,33.3-65.2,41.4S680.9,495.6,680.9,495.6z"/>
	<g id="coffe">
		<path id="handle-3" class="st0" d="M631.7,734.6c1.4-0.3,2.8-0.5,4.2-0.7c14.4-1,26.8,9.7,27.9,24.1c1,14.4-9.7,26.8-24.1,27.9
			c-3.2,0.2-6.5-0.1-9.6-1.1"/>
		<path id="mug-3" class="st3" d="M523.6,724.6v85.8c0,16.6,13.4,30,30,30h50.6c16.6,0,30-13.4,30-30v-85.8H523.6z M568.3,787.4
			c0.6,0.4,1,1,1,1.8c0,1.1-0.9,2-2,2c-0.3,0-0.7-0.1-1-0.2l-20-12c-1-0.5-1.4-1.7-1-2.7c0.2-0.4,0.5-0.8,1-1l20-12
			c0.3-0.2,0.7-0.3,1-0.2c0.5,0,1,0.2,1.4,0.6c0.4,0.4,0.6,0.9,0.6,1.4c0,0.7-0.4,1.4-1,1.8l-17.2,10.3L568.3,787.4z M593.3,757.9
			l-16.1,40.2c-0.1,0.2-0.2,0.4-0.4,0.5c-0.4,0.4-0.9,0.6-1.4,0.6c-1.1,0-2-0.9-2-2c0-0.3,0.1-0.6,0.2-0.8l16.1-40.2
			c0.1-0.2,0.3-0.4,0.4-0.6c0.4-0.4,0.9-0.6,1.4-0.6c1.1,0,2,0.9,2,2C593.5,757.3,593.5,757.6,593.3,757.9L593.3,757.9z
			 M620.6,778.9l-20,12c-0.3,0.2-0.7,0.3-1,0.2c-1.1,0-2-0.9-2-2c0-0.7,0.4-1.4,1-1.8l17.2-10.3l-17.2-10.3c-0.6-0.4-1-1-1-1.8
			c0-0.5,0.2-1.1,0.6-1.4c0.4-0.4,0.9-0.6,1.4-0.6c0.3,0,0.7,0.1,1,0.2l20,12c1,0.5,1.4,1.7,1,2.7
			C621.4,778.3,621,778.7,620.6,778.9L620.6,778.9z"/>
	</g>
	<line id="line-4" class="st0" x1="-0.5" y1="842.9" x2="1636" y2="842.9"/>
	<path class="st3" d="M850.2,416.9l-5.5-85.6l-110.4,7.1l3.8,57.9c9.8-8.4,58-40.6,65-41.2s15.4,9.6,3.4,17.5s-37.4,20.9-37.4,20.9
		c21.1-7.4,47.8-15.4,52.8-14.1c7.6,2,7.1,16-7.4,20.6l-40.7,14.5c0,0,47.4-11.9,53.8-11.4s12,17.1-17.8,22.7s-31,8.3-31,8.3
		s36.7-5.2,44.3-4.5s7.8,20.5-28.7,20.4l-0.2,0.5l28.1-1.8C838.7,447.7,851.3,433.5,850.2,416.9L850.2,416.9z"/>
</g>
<path class="st5" d="M1108,717.1"/>
<g>
	<path class="st6" d="M1129.9,726.5c-1.8,2.9-0.6,5.3,2.7,5.3h18c3.3,0,4.9-2.4,3.5-5.3l-8.1-17c-1.4-2.9-4-2.9-5.7,0L1129.9,726.5z
		"/>
	
		<linearGradient id="SVGID_1_" gradientUnits="userSpaceOnUse" x1="1135.4812" y1="951.5135" x2="1108.4148" y2="951.5135" gradientTransform="matrix(1 0 -6.992681e-02 1 56.8059 -232)">
		<stop  offset="0" style="stop-color:#FFFFFF"/>
		<stop  offset="0" style="stop-color:#DF4869"/>
		<stop  offset="1" style="stop-color:#DD4767"/>
	</linearGradient>
	<path class="st7" d="M1100,726.5c-1.8,2.9-0.6,5.3,2.7,5.3h18c3.3,0,4.9-2.4,3.5-5.3l-8.1-17c-1.4-2.9-4-2.9-5.7,0L1100,726.5z"/>
	<path class="st8" d="M1116.8,699.9c-1.8,2.9-0.6,5.3,2.7,5.3h18c3.3,0,4.9-2.4,3.5-5.3l-8.1-17c-1.4-2.9-4-2.9-5.7,0L1116.8,699.9z
		"/>
</g>
<path id="welt_2_" class="st3" d="M769.6,534.9c2.5-14.9,3.5-21.3,3.5-21.3c-38.1-5.9-77.4-53.9-77.4-53.9s-3.9,2.9-14.9,12.4
	c-4.4,3.8-9,3.8-13.8,3.4c-3.4,41.7,71.5,78.8,106.9,80.6C771.6,546,767.7,546.2,769.6,534.9z"/>
</svg>
